<svg xmlns="http://www.w3.org/2000/svg" width="657.506" height="86.466" viewBox="0 0 657.506 86.466"><g fill="#FFF"><path d="M1.826 57.481c-4.133-9.093-1.104-19.325 7.599-23.28 9.548-4.34 18.233.804 22.366 9.896l.413.91L5.966 56.933c3.424 6.671 10.539 10.256 17.942 6.891 3.962-1.801 6.92-4.947 8.283-9.016l2.758 1.411c-1.642 4.664-4.776 8.283-9.972 10.645-9.158 4.161-18.752.295-23.151-9.383m8.862-20.328C3.284 40.519 2.536 48.697 4.755 54.27l22.796-10.361c-2.485-5.297-9.004-10.328-16.863-6.756M41.604 25.22c0-1.569 1.355-2.782 2.854-2.782 1.57 0 2.853 1.213 2.853 2.782s-1.283 2.854-2.853 2.854c-1.499-.001-2.854-1.285-2.854-2.854m.999 8.276h3.711v34.458h-3.711V33.496zM57.943 76.729l2.14-2.996c2.997 3.566 6.277 4.851 11.485 4.851 6.207 0 11.701-3.14 11.701-10.913v-5.494c-2.426 3.566-6.85 6.491-11.987 6.491-9.132 0-15.337-6.92-15.337-17.978 0-10.917 6.206-18.05 15.337-18.05 4.922 0 9.204 2.497 11.987 6.421v-5.565h3.78V67.67c0 10.485-7.135 14.267-15.481 14.267-5.849 0-9.56-1.071-13.625-5.208M83.27 59.035V42.271c-1.999-3.354-6.564-6.279-11.344-6.279-7.635 0-12.057 6.351-12.057 14.697s4.422 14.624 12.057 14.624c4.779 0 9.345-2.923 11.344-6.278M98.07 57.481c-4.133-9.093-1.103-19.325 7.6-23.28 9.547-4.34 18.231.804 22.364 9.896l.413.91-26.238 11.926c3.425 6.671 10.539 10.256 17.942 6.891 3.963-1.801 6.921-4.947 8.285-9.016l2.756 1.411c-1.641 4.664-4.775 8.283-9.971 10.645-9.159 4.161-18.752.295-23.151-9.383m8.863-20.328C99.529 40.519 98.779 48.697 101 54.27l22.795-10.361c-2.485-5.297-9.004-10.328-16.862-6.756M162.254 67.954V44.626c0-6.636-3.354-8.633-8.348-8.633-4.423 0-8.989 2.782-11.2 5.922v26.04h-3.71V33.496h3.71v5.208c2.496-2.996 7.418-6.065 12.414-6.065 6.992 0 10.843 3.426 10.843 11.201v24.114h-3.709zM182.868 10.009v13.795h13.266v3.52h-13.266v13.912h-3.756V27.324h-13.266v-3.52h13.266V10.009z"/></g><path fill="#E9AA4D" d="M207.506 0h450v82h-450z"/><text transform="translate(218.968 68.522)" fill="#FFF" font-family="'Raleway-SemiBold'" font-size="79.046">INGENUITY</text></svg>