<svg xmlns="http://www.w3.org/2000/svg" width="364.781" height="142.694" viewBox="0 0 364.781 142.694"><path fill="#119EA6" d="M38.732 88.813c-6.328-13.922-1.69-29.59 11.636-35.646 14.619-6.645 27.917 1.23 34.245 15.152l.633 1.393L45.07 87.973c5.243 10.215 16.137 15.703 27.473 10.551 6.067-2.758 10.596-7.575 12.685-13.805l4.221 2.16c-2.512 7.144-7.313 12.684-15.269 16.3-14.022 6.373-28.713.452-35.448-14.366m13.57-31.126c-11.337 5.153-12.484 17.677-9.085 26.209L78.122 68.03c-3.806-8.109-13.787-15.812-25.82-10.343M99.639 39.415c0-2.403 2.075-4.259 4.369-4.259 2.404 0 4.37 1.856 4.37 4.259a4.382 4.382 0 0 1-4.37 4.369c-2.294 0-4.369-1.966-4.369-4.369m1.53 12.672h5.68v52.761h-5.68V52.087zM124.656 118.283l3.277-4.588c4.588 5.462 9.613 7.429 17.587 7.429 9.504 0 17.915-4.807 17.915-16.712v-8.411c-3.714 5.461-10.487 9.939-18.352 9.939-13.983 0-23.486-10.596-23.486-27.527 0-16.714 9.503-27.637 23.486-27.637 7.537 0 14.092 3.824 18.352 9.832v-8.52h5.79v52.324c0 16.058-10.925 21.846-23.705 21.846-8.958 0-14.638-1.639-20.864-7.975m38.779-27.091V65.524c-3.059-5.135-10.05-9.614-17.369-9.614-11.688 0-18.461 9.723-18.461 22.503 0 12.779 6.773 22.393 18.461 22.393 7.319 0 14.31-4.478 17.369-9.614M186.099 88.813c-6.328-13.922-1.69-29.59 11.636-35.646 14.619-6.645 27.917 1.23 34.245 15.152l.633 1.393-40.176 18.261c5.243 10.215 16.137 15.703 27.473 10.551 6.067-2.758 10.597-7.575 12.686-13.805l4.221 2.16c-2.512 7.144-7.312 12.684-15.269 16.3-14.024 6.373-28.714.452-35.449-14.366m13.57-31.126c-11.337 5.153-12.484 17.677-9.085 26.209l34.904-15.866c-3.805-8.109-13.787-15.812-25.819-10.343M284.375 104.848V69.129c0-10.16-5.136-13.219-12.781-13.219-6.773 0-13.764 4.259-17.15 9.067v39.871h-5.68V52.087h5.68v7.975c3.823-4.589 11.36-9.287 19.008-9.287 10.705 0 16.604 5.245 16.604 17.151v36.922h-5.681z"/><path fill="#EDA945" d="M315.939 16.125v21.121h20.313v5.392h-20.313v21.301h-5.751V42.638h-20.312v-5.392h20.312V16.125z"/><path fill="#119EA6" d="M364.781 142.694H0V0h364.781v142.694zM4.458 138.237h355.866V4.459H4.458v133.778z"/></svg>