<svg xmlns="http://www.w3.org/2000/svg" xmlns:xlink="http://www.w3.org/1999/xlink" width="680" height="680" viewBox="0 0 680 680"><path fill="#00A7B6" d="M257.058 265.066c-3.676-8.086-.982-17.186 6.758-20.704 8.491-3.859 16.216.715 19.891 8.801l.368.809-23.335 10.607c3.044 5.933 9.373 9.121 15.957 6.128 3.524-1.602 6.154-4.401 7.368-8.018l2.452 1.254c-1.459 4.148-4.248 7.367-8.869 9.467-8.145 3.702-16.678.264-20.59-8.344m7.881-18.079c-6.584 2.993-7.25 10.268-5.277 15.223l20.274-9.215c-2.209-4.71-8.007-9.184-14.997-6.008M292.435 236.375c0-1.396 1.206-2.474 2.538-2.474 1.396 0 2.539 1.079 2.539 2.474a2.546 2.546 0 0 1-2.539 2.538c-1.333-.001-2.538-1.143-2.538-2.538m.888 7.36h3.3v30.646h-3.3v-30.646zM306.966 282.184l1.903-2.665c2.665 3.172 5.583 4.315 10.214 4.315 5.52 0 10.406-2.792 10.406-9.707v-4.886c-2.158 3.172-6.091 5.773-10.66 5.773-8.122 0-13.641-6.155-13.641-15.989 0-9.708 5.519-16.052 13.641-16.052 4.378 0 8.185 2.221 10.66 5.711v-4.949h3.362v30.392c0 9.326-6.345 12.688-13.769 12.688-5.201.001-8.5-.951-12.116-4.631m22.524-15.736V251.54c-1.777-2.982-5.838-5.584-10.088-5.584-6.79 0-10.723 5.648-10.723 13.071 0 7.422 3.934 13.006 10.723 13.006 4.25-.001 8.311-2.601 10.088-5.585M342.652 265.066c-3.675-8.086-.98-17.186 6.76-20.704 8.491-3.859 16.215.715 19.89 8.801l.367.809-23.335 10.607c3.046 5.933 9.372 9.121 15.957 6.128 3.524-1.602 6.155-4.401 7.368-8.018l2.451 1.254c-1.458 4.148-4.247 7.367-8.868 9.467-8.144 3.702-16.677.264-20.59-8.344m7.883-18.079c-6.585 2.993-7.251 10.268-5.275 15.223l20.272-9.215c-2.211-4.71-8.008-9.184-14.997-6.008M399.735 274.38v-20.747c0-5.901-2.982-7.678-7.424-7.678-3.934 0-7.993 2.474-9.961 5.266v23.159h-3.299v-30.646h3.299v4.632c2.22-2.665 6.598-5.395 11.04-5.395 6.218 0 9.644 3.047 9.644 9.962v21.446h-3.299z"/><path fill="#EDAE4D" d="M418.069 222.847v12.268h11.798v3.132h-11.798v12.372h-3.34v-12.372H402.93v-3.132h11.799v-12.268z"/><path fill="#00A7B6" d="M446.52 205.83s-55.949-6.578-105.937-6.578c-49.987 0-106.103 6.575-106.103 6.575-5.413 32.538-9.037 67.964-10.511 105.247l.313.193s61.513-7.208 116.309-7.208 116.127 7.211 116.127 7.211l.312-.196c-1.473-37.282-5.097-72.707-10.51-105.244zm5.141 101.084s-58.663-6.623-111.074-6.623c-52.412 0-111.249 6.62-111.249 6.62l-.299-.177c1.409-34.243 4.876-66.781 10.053-96.667 0 0 53.674-6.04 101.486-6.04s101.327 6.042 101.327 6.042c5.178 29.885 8.644 62.422 10.055 96.665l-.299.18z"/><path fill="#42AD7E" d="M300.676 115.468a10.727 10.727 0 0 1-2.285-2.021c-.587 0-1.173.218-1.621.654l-13.266 12.948a2.196 2.196 0 0 0-.586 2.179c.102.36.296.701.586.984l.004.004a2.33 2.33 0 0 0 3.241 0l13.266-12.948a2.192 2.192 0 0 0 .661-1.8zM306.787 96.186c-5.922 0-10.723 4.686-10.723 10.466 0 2.534.923 4.856 2.458 6.668a10.723 10.723 0 0 0 2.285 2.02 10.853 10.853 0 0 0 5.98 1.777c5.922 0 10.723-4.686 10.723-10.465 0-5.78-4.801-10.466-10.723-10.466zm0 18.838c-4.737 0-8.578-3.749-8.578-8.373s3.841-8.373 8.578-8.373c4.738 0 8.578 3.749 8.578 8.373s-3.84 8.373-8.578 8.373z"/><g fill="#EBA744"><path d="M299.634 181h-1.696c.125 1 .933 1.697 1.913 1.697s1.788-.697 1.913-1.697h-2.13zM299 148.972s.349-.005.5-.003c.152-.001.5.003.5.003v.003c0 .015.892.061 1.467.185.02-.105.069-.214.069-.325 0-.956-.747-1.732-1.691-1.732-.945 0-1.702.776-1.702 1.732 0 .108-.254.214-.235.317.562-.119 1.092-.163 1.092-.177v-.003zM316 176.404v-.002s-6.952-7.615-7.474-17.645c-.359-6.915-4.528-8.828-6.948-9.35-.575-.124-1.579-.169-1.579-.185v-.003s-.348-.005-.5-.004c-.151-.001-.5.004-.5.004v.003c0 .015-.526.059-1.086.178-2.416.511-6.369 2.41-6.73 9.356-.521 10.03-7.184 17.645-7.184 17.645v.004c-1 .048-1.869.914-1.869 1.979s.869 1.931 1.869 1.979V180H316v.365c1-.029 1.905-.904 1.905-1.98s-.905-1.951-1.905-1.981z"/></g><g fill="#1D4055"><path d="M389.102 147H378v17h17v-11.149c0-3.328-2.57-5.851-5.898-5.851zM388 158h-3v-2h3v2zM365.97 147c-3.327 0-6.97 2.523-6.97 5.851V164h19v-17h-12.03zm6.03 10h-3v2h-1v-2h-3v-2h3v-2h1v2h3v2zM359 164v11.983c0 3.327 3.643 7.017 6.97 7.017H378v-19h-19zm11.227 12l-1.277-1.952-1.374 1.952h-2.109l2.314-2.705-1.953-2.295h2.133l1.036 1.59 1.001-1.59h2.011l-1.902 2.295L372.36 176h-2.133zM378 164v19h11.102c3.328 0 5.898-3.69 5.898-7.017V164h-17zm12 10h-7v-1h7v1zm0-2h-7v-1h7v1z"/></g><g fill="#3AABB7"><path d="M393.223 127H364V98.101c0-1.076-1.426-1.948-2.5-1.948-1.076 0-2.5.872-2.5 1.948v31.411c0 .863.996 1.595 1.773 1.85.008.003.233.007.242.01.02.005.147.009.166.015.062.017.18-.199.243-.188.108.019.272-.199.387-.199h31.411c1.075 0 1.948-.925 1.948-2 .001-1.076-.872-2-1.947-2z"/><path d="M365.81 126.589c2.799-4.888 5.599-9.776 8.396-14.664.02-.032.038-.064.057-.097l-1.434.193 6.719 6.781a.919.919 0 0 0 1.29-.007 147416.183 147416.183 0 0 0 13.091-13.468c.819-.843-.477-2.131-1.299-1.285l-12.411 12.77-.678.698 1.291-.007-6.718-6.781c-.414-.418-1.143-.314-1.434.192a54840.632 54840.632 0 0 0-8.453 14.761c-.584 1.024.997 1.937 1.583.914z"/></g><path fill="#093846" d="M269.538 89.83s71.16-9.666 141.705.002c0 0-25.179-74.387-70.937-74.387S269.538 89.83 269.538 89.83z"/><path fill="none" d="M241.502 56.049s99.589-15.489 198.088.002"/><text transform="rotate(-1.072 2803.815 -17352.493)"><tspan x="0" y="0" fill="#FFF" font-family="'Raleway-Medium'" font-size="13.286">N</tspan><tspan x="10.201" y=".007" fill="#FFF" font-family="'Raleway-Medium'" font-size="13.286" rotate=".677">E</tspan><tspan x="18.186" y=".078" fill="#FFF" font-family="'Raleway-Medium'" font-size="13.286" rotate="1.512">W</tspan></text><path fill="none" d="M241.502 73.32s99.589-15.488 198.088.002"/><text transform="rotate(-3.067 1415.685 -5529.168)"><tspan x="0" y="0" fill="#FFF" font-family="'Raleway-Medium'" font-size="13.286">C</tspan><tspan x="9.035" y="0" fill="#FFF" font-family="'Raleway-Medium'" font-size="13.286" rotate=".638">A</tspan><tspan x="18.021" y=".102" fill="#FFF" font-family="'Raleway-Medium'" font-size="13.286" rotate="1.256">P</tspan><tspan x="26.279" y=".281" fill="#FFF" font-family="'Raleway-Medium'" font-size="13.286" rotate="1.882">A</tspan><tspan x="35.215" y=".574" fill="#FFF" font-family="'Raleway-Medium'" font-size="13.286" rotate="2.541">B</tspan><tspan x="44.12" y=".98" fill="#FFF" font-family="'Raleway-Medium'" font-size="13.286" rotate="3.008">I</tspan><tspan x="47.539" y="1.152" fill="#FFF" font-family="'Raleway-Medium'" font-size="13.286" rotate="3.436">L</tspan><tspan x="55.268" y="1.624" fill="#FFF" font-family="'Raleway-Medium'" font-size="13.286" rotate="3.873">I</tspan><tspan x="58.71" y="1.847" fill="#FFF" font-family="'Raleway-Medium'" font-size="13.286" rotate="4.335">T</tspan><tspan x="66.823" y="2.472" fill="#FFF" font-family="'Raleway-Medium'" font-size="13.286" rotate="4.806">I</tspan><tspan x="70.237" y="2.749" fill="#FFF" font-family="'Raleway-Medium'" font-size="13.286" rotate="5.282">E</tspan><tspan x="78.221" y="3.486" fill="#FFF" font-family="'Raleway-Medium'" font-size="13.286" rotate="5.971">S</tspan></text><path fill="#093846" d="M340.5 10.495c-46.369 0-86.392 77.451-105.024 189.451 0 0 55.588-6.514 105.105-6.514 49.518 0 104.942 6.516 104.942 6.516C426.892 87.947 386.867 10.495 340.5 10.495zm.078 177.916c-46.699 0-99.122 6.143-99.122 6.143C259.027 88.93 296.771 15.889 340.5 15.889s81.474 73.042 99.044 178.667c0-.001-52.268-6.145-98.966-6.145z"/><path fill="#42AD7E" d="M457.706 355.413c0-12.801-.474-25.434-.966-37.862-38.939-5.237-77.74-8.564-113.74-8.485v215.187c35 .184 67.434 4.574 95.854 12.167 1.029-4.549 2.122-9.175 3.073-13.871 6.227-30.702 10.842-64.484 13.391-100.354a943.356 943.356 0 0 0 2.388-66.782zm-22.062 176.096C409.843 524.243 380 520.043 349 519.867v-205.89c32-.076 67.588 3.108 102.937 8.119.445 11.891.581 23.978.581 36.227 0 21.768-.761 43.026-2.141 63.573-2.354 35.043-6.562 68.012-12.388 97.887-.772 3.963-1.519 7.873-2.345 11.726zM511.125 469.934c-.334-37.3-30.882-46.043-51.107-47.739-2.549 35.87-7.112 69.652-13.339 100.354l9.972 6.678s1.393-33.509 26.57 1.079c25.179 34.587-1.494 211.681 14.451 108.042 15.943-103.64 13.951-112.609 13.453-168.414z"/><path fill="#42AD7E" d="M444.225 487.87c-2.138 14.979-4.408 30.365-7.553 45.982 0 0-50.672-12.806-87.672-12.019v-40.921s53.242-1.287 95.55 6.929l-.325.029z"/><path fill="none" d="M351.176 501.855s34.289-3.366 86.949 9.902M348.429 522.141s35.329-3.467 89.585 10.205"/><g fill="#C8CCCC"><path d="M370.1 400.374h5.892v9.778h2.18v-9.778h6.021v-1.816h29.372v1.894h5.45v9.701h2.128v-9.701h6.407v-1.468c0-.021.012-.037.012-.055v-.37h9.812v-2.258h-9.812v-.28c0-.019-.012-.036-.012-.053v-1.428h-13.985v1.761h-13.569v-4.547h-2.349v4.547H384.19v-1.892H370.1v1.892h-10.873v2.258H370.1v1.815zM394.167 387.849h8.926v-4.479h12.234v-21.754h-32.988v21.754h11.828v4.479zm-8.484-7.825V364.96h26.303v15.064h-26.303zM389.361 387.932h18.541v.921h-18.541zM357.316 434.368h11.828v4.479h8.926v-4.479h12.237v-21.755h-32.991v21.755zm3.347-18.413h26.3v15.068h-26.3v-15.068zM364.341 438.931h18.537v.922h-18.537zM407.902 412.109v21.757h11.825v4.479h8.929v-4.479h12.233v-21.757h-32.987zm29.643 18.413h-26.302v-15.065h26.302v15.065zM414.922 438.429h18.54v.921h-18.54z"/></g><path fill="#EDA945" d="M236.086 488.096a864.069 864.069 0 0 0 8 47.455S295 522.336 333 523.148v-42.231s-54.143-1.328-96.87 7.15l-.044.029z"/><path fill="none" d="M242.153 513.84s34.169-9.623 89.983-5.7M245.036 528.965s34.169-9.622 89.982-5.699"/><path fill="#FFF" d="M245.792 484.161z"/><defs><path id="a" d="M236.763 372.433h90.286v124.142h-90.286z"/></defs><clipPath id="b"><use xlink:href="#a" overflow="visible"/></clipPath><g clip-path="url(#b)"><g transform="matrix(255.34958 0 0 141.1143 0 650.886)"><defs><path id="c" d="M-44.039-63.604h90.286V60.538h-90.286z"/></defs><clipPath id="d"><use xlink:href="#c" overflow="visible"/></clipPath></g></g><g clip-path="url(#b)"><g transform="matrix(1.25 0 0 -1.25 -63.924 923.08)"><defs><path id="e" d="M130.695 574.441h75.633v43.497h-75.633z"/></defs><clipPath id="f"><use xlink:href="#e" overflow="visible"/></clipPath><g clip-path="url(#f)"><g transform="matrix(1.86871 0 0 1.86871 -44.425 -641.511)"><defs><path id="g" d="M104.078 439.849h168.718v231.987H104.078z"/></defs><clipPath id="h"><use xlink:href="#g" overflow="visible"/></clipPath><g clip-path="url(#h)"><g transform="matrix(232.558 0 0 120.712 0 671.288)"><defs><path id="i" d="M-83.549-116.95H85.169v231.987H-83.549z"/></defs><clipPath id="j"><use xlink:href="#i" overflow="visible"/></clipPath><g clip-path="url(#j)"><defs><path id="k" d="M.655-.545V-.67H.78v.125"/></defs><clipPath id="l"><use xlink:href="#k" overflow="visible"/></clipPath><g clip-path="url(#l)"><path fill="#C7C7C7" d="M.695-.633L.694-.634V-.616l.001.001.001-.001v-.017"/><path fill="#C7C7C7" d="M.695-.616v-.017-.001.001a.048.048 0 0 0 0 .017c-.001 0-.001 0 0 0-.001 0-.001 0 0 0m-.001.002V-.632l.001-.001.001.001v.017l-.002.001"/><path fill="#C7C7C7" d="M.693-.633L.692-.634v.015l.001.001.001-.001v-.014"/><path fill="#C7C7C7" d="M.693-.619v-.014-.001.001.014c-.001 0-.001.001 0 0-.001.001-.001 0 0 0m-.001.002L.691-.619v-.014l.001-.001.001.001v.014l-.001.002M.697-.638v-.001.001l-.001.025v.001V-.638"/><path fill="#C7C7C7" d="M.696-.61s0-.001 0 0v-.002V-.638v-.003-.001.032c.001-.001.001 0 0 0M.698-.633l.001-.001.001.001v.017l-.001.002-.001-.002v-.017"/><path fill="#C7C7C7" d="M.699-.615c0-.001 0-.001 0 0v-.017-.001.001a.048.048 0 0 0 0 .017c-.001-.001 0-.001 0 0m0 .001L.698-.615v-.017l.001-.001.001.001v.017l-.001.001M.7-.633l.001-.001.001.001v.014l-.001.001L.7-.619v-.014"/><path fill="#C7C7C7" d="M.701-.618s0-.001 0 0v-.014-.001.001.014c0-.001 0 0 0 0m0 .001L.7-.619v-.014l.001-.001.001.001v.014l-.001.002M.691-.629L.69-.63V-.621l.001-.001v-.007"/><path fill="#C7C7C7" d="M.691-.623V-.63v-.001.001.007c-.001.001-.001.001 0 0-.001.001-.001.001 0 0M.69-.621L.689-.622v-.007L.69-.63l.001.001v.007L.69-.621M.702-.629L.703-.63l.001.001v.007l-.001.001-.001-.001v-.007"/><path fill="#C7C7C7" d="M.703-.622v-.007-.001.001.007c-.001 0 0 0 0 0m0 .001L.702-.622v-.007L.703-.63l.001.001v.007l-.001.001"/><path fill="#C7C7C7" d="M.704-.65c-.001 0-.001 0 0 0L.697-.653c-.007 0-.012.008-.012.022 0 .009.002.017.005.022.002.003.005.005.007.005.006 0 .01-.008.01-.019a.03.03 0 0 0-.003-.015C.704-.642.701-.643.7-.643c-.002 0-.002.003-.002.005H.696c0-.003.002-.006.004-.006.003 0 .005.002.007.005a.063.063 0 0 1 .002.016c0 .013-.005.021-.012.021-.005 0-.009-.004-.012-.011A.088.088 0 0 1 .683-.63c0-.008.002-.014.005-.019.002-.004.005-.006.009-.006a.01.01 0 0 1 .007.003v.002"/><path fill="#707070" d="M.71-.642l.002.003c.001 0 .002-.001.002-.003v-.001C.71-.645.709-.647.709-.65S.71-.655.712-.655l.003.003v-.002h.001v.013c0 .004-.002.005-.003.005C.711-.636.71-.638.71-.64v-.002M.714-.65c0-.002-.001-.003-.002-.003L.711-.65c0 .002.001.004.004.005V-.65"/><path fill="none" stroke="#707070" stroke-width=".001" d="M.71-.642l.002.003c.001 0 .002-.001.002-.003v-.001C.71-.645.709-.647.709-.65S.71-.655.712-.655l.003.003v-.002h.001v.013c0 .004-.002.005-.003.005C.711-.636.71-.638.71-.64v-.002zM.714-.65c0-.002-.001-.003-.002-.003L.711-.65c0 .002.001.004.004.005V-.65z"/><path fill="#707070" d="M.711-.65c0 .002.001.003.003.004V-.65L.712-.652.711-.65m.003.005C.712-.645.71-.647.71-.65c0-.002.001-.003.002-.003l.003.003-.001.005c.001 0 .001 0 0 0 .001 0 0 0 0 0"/><path fill="none" stroke="#707070" stroke-width=".001" d="M.711-.65c0 .002.001.003.003.004V-.65L.712-.652.711-.65zm.003.005C.712-.645.71-.647.71-.65c0-.002.001-.003.002-.003l.003.003-.001.005c.001 0 .001 0 0 0 .001 0 0 0 0 0z"/><path fill="#707070" d="M.713-.638c.001 0 .003 0 .003-.004v-.009-.003.003L.712-.654C.711-.654.71-.653.71-.65s.001.005.005.006v.002l-.002.004C.711-.638.71-.64.71-.641c0 .002.001.003.003.003M.709-.64c0-.001 0-.001 0 0 0-.001 0-.001 0 0L.71-.643l.002.002.001-.002C.711-.644.709-.646.709-.65c0-.003.001-.005.003-.005l.003.002v-.001-.001h.001V-.641c0 .004-.002.006-.003.006L.709-.64"/><path fill="none" stroke="#707070" stroke-width=".006" d="M.713-.638c.001 0 .003 0 .003-.004v-.009-.003.003L.712-.654C.711-.654.71-.653.71-.65s.001.005.005.006v.002l-.002.004C.711-.638.71-.64.71-.641c0 .002.001.003.003.003zM.709-.64c0-.001 0-.001 0 0 0-.001 0-.001 0 0L.71-.643l.002.002.001-.002C.711-.644.709-.646.709-.65c0-.003.001-.005.003-.005l.003.002v-.001-.001h.001V-.641c0 .004-.002.006-.003.006L.709-.64z"/><path fill="#707070" d="M.718-.65l.003-.003c.001 0 .002.001.002.003 0 .004-.005.002-.005.008 0 .003.001.005.003.005L.724-.64.723-.642.72-.639C.719-.639.718-.64.718-.642c0-.004.005-.002.005-.008 0-.003-.002-.005-.003-.005l-.004.003.002.002"/><path fill="none" stroke="#707070" stroke-width=".001" d="M.718-.65l.003-.003c.001 0 .002.001.002.003 0 .004-.005.002-.005.008 0 .003.001.005.003.005L.724-.64.723-.642.72-.639C.719-.639.718-.64.718-.642c0-.004.005-.002.005-.008 0-.003-.002-.005-.003-.005l-.004.003.002.002z"/><path fill="#707070" d="M.723-.65c0 .003-.001.003-.003.004l-.002.004c0 .002.001.004.003.004L.724-.64v-.001L.72-.638c-.001 0-.002-.001-.002-.003S.719-.644.72-.644C.722-.646.724-.647.723-.65c0-.003-.001-.004-.002-.004l-.003.002v.001l.003-.003.002.004m-.006.008c0-.004.002-.005.003-.006.002 0 .002-.001.002-.002s0-.002-.002-.002a.002.002 0 0 0-.002.002L.717-.651v-.001c.001-.002.002-.004.004-.004s.003.002.003.006-.002.005-.003.006l-.002.002.001.002.002-.002.001.001v.001c0 .002-.001.004-.003.004-.001 0-.003-.003-.003-.006"/><path fill="none" stroke="#707070" stroke-width=".001" d="M.723-.65c0 .003-.001.003-.003.004l-.002.004c0 .002.001.004.003.004L.724-.64v-.001L.72-.638c-.001 0-.002-.001-.002-.003S.719-.644.72-.644C.722-.646.724-.647.723-.65c0-.003-.001-.004-.002-.004l-.003.002v.001l.003-.003.002.004zm-.006.008c0-.004.002-.005.003-.006.002 0 .002-.001.002-.002s0-.002-.002-.002a.002.002 0 0 0-.002.002L.717-.651v-.001c.001-.002.002-.004.004-.004s.003.002.003.006-.002.005-.003.006l-.002.002.001.002.002-.002.001.001v.001c0 .002-.001.004-.003.004-.001 0-.003-.003-.003-.006z"/><path fill="#707070" d="M.727-.661v.008l.002-.002c.002 0 .004.002.004.009 0 .007-.002.009-.004.009a.002.002 0 0 1-.002-.002v.002H.725v-.024h.002m0 .019l.002.003c.002 0 .003-.002.003-.007S.731-.653.729-.653a.002.002 0 0 0-.002.002v.009"/><path fill="none" stroke="#707070" stroke-width=".001" d="M.727-.661v.008l.002-.002c.002 0 .004.002.004.009 0 .007-.002.009-.004.009a.002.002 0 0 1-.002-.002v.002H.725v-.024h.002zm0 .019l.002.003c.002 0 .003-.002.003-.007S.731-.653.729-.653a.002.002 0 0 0-.002.002v.009z"/><path fill="#707070" d="M.729-.64c.001 0 .002-.002.002-.006S.73-.652.729-.652L.727-.65v.008l.002.002M.726-.641v-.01l.003-.003c.001 0 .003.001.003.008 0 .005-.001.007-.003.007-.001.001-.002 0-.003-.002"/><path fill="none" stroke="#707070" stroke-width=".001" d="M.729-.64c.001 0 .002-.002.002-.006S.73-.652.729-.652L.727-.65v.008l.002.002zM.726-.641v-.01l.003-.003c.001 0 .003.001.003.008 0 .005-.001.007-.003.007-.001.001-.002 0-.003-.002z"/><path fill="#707070" d="M.727-.64l.002.002c.002 0 .003-.002.003-.008S.73-.654.729-.654a.002.002 0 0 0-.002.002v-.001-.007.022-.002c-.001 0-.001 0 0 0m0 .002v.001H.725v-.025-.001h.001v.008l.002-.001c.002 0 .004.003.004.01s-.002.01-.004.01L.727-.638"/><path fill="none" stroke="#707070" stroke-width=".001" d="M.727-.64l.002.002c.002 0 .003-.002.003-.008S.73-.654.729-.654a.002.002 0 0 0-.002.002v-.001-.007.022-.002c-.001 0-.001 0 0 0zm0 .002v.001H.725v-.025-.001h.001v.008l.002-.001c.002 0 .004.003.004.01s-.002.01-.004.01L.727-.638z"/><path fill="#707070" d="M.74-.65c0-.002-.001-.003-.002-.003S.735-.65.735-.647h.006v.002c0 .005-.002.008-.003.008-.002 0-.004-.003-.004-.009 0-.006.002-.009.004-.009s.003.002.002.005m-.005.005c0 .003.001.005.002.005s.002-.002.002-.005H.735"/><path fill="none" stroke="#707070" stroke-width=".001" d="M.74-.65c0-.002-.001-.003-.002-.003S.735-.65.735-.647h.006v.002c0 .005-.002.008-.003.008-.002 0-.004-.003-.004-.009 0-.006.002-.009.004-.009s.003.002.002.005zm-.005.005c0 .003.001.005.002.005s.002-.002.002-.005H.735z"/><path fill="#707070" d="M.738-.64C.739-.64.74-.641.74-.644H.736c0 .002 0 .004.002.004M.735-.644c0-.001 0-.001 0 0 0-.001 0-.001 0 0L.74-.645v.001c0 .004-.001.006-.002.006-.002 0-.003-.003-.003-.006"/><path fill="none" stroke="#707070" stroke-width=".001" d="M.738-.64C.739-.64.74-.641.74-.644H.736c0 .002 0 .004.002.004zM.735-.644c0-.001 0-.001 0 0 0-.001 0-.001 0 0L.74-.645v.001c0 .004-.001.006-.002.006-.002 0-.003-.003-.003-.006z"/><path fill="#707070" d="M.734-.646c0 .005.001.008.003.008S.74-.641.74-.645v-.001H.734c.001 0 .001 0 0 0 0-.005.002-.008.003-.008l.003.003c0-.002 0-.003-.002-.003s-.004.002-.004.008m0 0c0-.007.002-.01.004-.01s.003.002.004.004v.001l-.001.002H.74c0-.002-.001-.003-.002-.003S.736-.65.736-.647h.005v.003c0 .006-.002.009-.004.009C.735-.636.734-.64.734-.646"/><path fill="none" stroke="#707070" stroke-width=".001" d="M.734-.646c0 .005.001.008.003.008S.74-.641.74-.645v-.001H.734c.001 0 .001 0 0 0 0-.005.002-.008.003-.008l.003.003c0-.002 0-.003-.002-.003s-.004.002-.004.008zm0 0c0-.007.002-.01.004-.01s.003.002.004.004v.001l-.001.002H.74c0-.002-.001-.003-.002-.003S.736-.65.736-.647h.005v.003c0 .006-.002.009-.004.009C.735-.636.734-.64.734-.646z"/><path fill="#707070" d="M.744-.638V-.64l.003.003c.001 0 .003-.001.003-.005v-.012H.748v.012a.004.004 0 0 1-.001.003L.744-.642v-.013H.743v.017h.001"/><path fill="none" stroke="#707070" stroke-width=".001" d="M.744-.638V-.64l.003.003c.001 0 .003-.001.003-.005v-.012H.748v.012a.004.004 0 0 1-.001.003L.744-.642v-.013H.743v.017h.001z"/><path fill="#707070" d="M.744-.641s0 .001 0 0l.003.003c.001 0 .002-.001.002-.004v-.012.012l-.002.004C.745-.638.744-.64.744-.641v-.001-.012V-.641c0 .001 0 0 0 0m0 .003v.001H.743V-.655v-.001h.001V-.642l.003.002.001-.002v-.012-.001h.001V-.642c0 .004-.002.006-.003.006L.744-.638"/><path fill="none" stroke="#707070" stroke-width=".001" d="M.744-.641s0 .001 0 0l.003.003c.001 0 .002-.001.002-.004v-.012.012l-.002.004C.745-.638.744-.64.744-.641v-.001-.012V-.641c0 .001 0 0 0 0zm0 .003v.001H.743V-.655v-.001h.001V-.642l.003.002.001-.002v-.012-.001h.001V-.642c0 .004-.002.006-.003.006L.744-.638z"/><path fill="#C7C7C7" d="M.752-.638v.006h.001v-.006h.002V-.64H.753v-.013l.001-.002h.001v-.002H.754c-.001 0-.002.001-.002.003v.013H.751v.002h.001"/><path fill="#C7C7C7" d="M.753-.632v-.005h.002v-.001H.753v-.013l.001-.002h.001v-.001H.754c-.001 0-.002.001-.002.003v.013H.751v.001h.001l.001.005m-.001.001s0-.001 0 0v-.006H.751v-.002h.001v-.013c0-.002.001-.003.002-.003h.001v.002H.754l-.001.001v.012h.002v.002H.753v.005H.752M.763-.646c0 .005-.001.009-.004.009-.002 0-.004-.004-.004-.009 0-.006.001-.009.004-.009.002 0 .003.001.004.004v.001C.762-.653.761-.653.76-.653c-.002 0-.003.003-.003.007h.006m-.006.001c0 .002.001.006.003.006s.002-.002.003-.006H.757"/><path fill="#C7C7C7" d="M.76-.639c.001 0 .002-.002.002-.005H.757c0 .002.001.005.003.005M.757-.645h.005c0 .004-.001.006-.003.006C.758-.638.757-.642.757-.645"/><path fill="#C7C7C7" d="M.756-.646c0 .005.001.009.003.009S.762-.64.762-.645C.763-.646.757-.646.756-.646c.001 0 .001 0 0 0C.757-.651.758-.654.76-.654l.003.003L.76-.655c-.003 0-.004.003-.004.009m0 0c0-.006.001-.009.004-.009.002 0 .003.001.004.004L.763-.65.76-.653c-.002 0-.003.005-.003.006h.006c0 .006-.001.009-.004.009C.757-.637.756-.64.756-.646M.771-.642l-.002.004C.767-.638.766-.64.766-.645c0-.004.001-.007.003-.007l.003.004.001-.001-.004-.006c-.002 0-.004.004-.004.009 0 .006.002.009.004.009.001 0 .002-.002.002-.005"/><path fill="#C7C7C7" d="M.765-.646c0 .005.001.009.004.009l.003-.004H.771c0 .002-.001.003-.002.003-.002 0-.004-.002-.004-.008.001-.005.002-.008.004-.008l.003.003-.003-.004c-.003 0-.004.004-.004.009m-.001 0c0-.006.002-.009.004-.009s.003.002.004.005l-.001.001-.002-.004c-.002 0-.003.003-.003.007 0 .005.001.007.003.007.001 0 .002-.001.002-.003h.001C.771-.638.77-.637.769-.637.766-.637.764-.64.764-.646M.773-.655v.024h.001V-.64l.003.003c.002 0 .003-.002.003-.006v-.012H.779v.012c0 .003 0 .004-.002.004L.774-.642v-.013H.773"/><path fill="#C7C7C7" d="M.774-.631V-.64l.003.003c.002 0 .002-.002.002-.005v-.011H.778v.011c0 .002 0 .005-.002.005L.773-.64v-.001-.012H.772c.001-.001.001.021.002.022M.773-.63s0-.001 0 0v-.024h.001v.012l.003.003c.001 0 .002-.001.002-.004v-.012H.78v.012c0 .004-.001.006-.003.006L.774-.639v.008H.773M.705-.656v.001-.001.001-.001.001-.001.001-.001m-.001.002v-.002.002"/></g></g></g></g></g></g></g></g><path fill="#707070" d="M289.059 351.421l-2.716 5.962h-3.651l1.083 1.41h1.935l-1.025 2.248h1.634l1.044-2.248h3.779l1.044 2.248h1.762l-4.401-9.62h-.488zm32.744 0l-4.408 9.62h1.762l1.044-2.248h3.785l1.044 2.248h1.627l-4.369-9.62h-.485zm-18.934.177v1.532h5.528v-1.532h-5.528zm-9.999.014l4.016 9.62h.487l4.105-9.62h-1.627l-2.677 6.33-2.543-6.33h-1.761zm16.865 0l4.01 9.62h.487l4.112-9.62h-1.633l-2.671 6.33-2.543-6.33h-1.762zm-20.484 3.1l1.243 2.671h-2.485l1.242-2.67zm32.84 0l1.243 2.671h-2.479l1.236-2.67zm-19.222.866v1.53h5.528v-1.53h-5.528zm0 3.945v1.53h5.528v-1.53h-5.528z"/><path fill="#202020" d="M286.977 363.923c-.474 0-.82.335-.82.79 0 .311.249.741.807.741.233 0 .392-.059.538-.134v-.23a.972.972 0 0 1-.519.166c-.358 0-.602-.229-.602-.563 0-.328.249-.57.589-.57.172 0 .335.047.519.153v-.23a1.282 1.282 0 0 0-.512-.123zm2.024 0c-.483 0-.801.356-.801.77 0 .404.308.762.794.762.504 0 .807-.359.807-.762.001-.416-.309-.77-.8-.77zm20.042 0c-.482 0-.801.356-.801.77 0 .404.308.762.794.762.504 0 .807-.359.807-.762.001-.416-.309-.77-.8-.77zm2.261 0c-.454 0-.794.338-.794.775s.332.756.788.756a1.3 1.3 0 0 0 .569-.122v-.634h-.5v.192h.289v.307a1.064 1.064 0 0 1-.327.06c-.353 0-.602-.232-.602-.564 0-.324.253-.57.576-.57.179 0 .357.051.532.147v-.218c-.232-.099-.356-.129-.531-.129zm5.426 0c-.273 0-.449.155-.449.398 0 .407.641.447.641.755 0 .083-.077.186-.244.186-.146 0-.282-.078-.391-.218v.27a.659.659 0 0 0 .417.141c.24 0 .416-.17.416-.403 0-.474-.64-.47-.64-.757 0-.104.1-.178.237-.178.101 0 .219.04.346.16v-.243a.598.598 0 0 0-.333-.11zm1.588 0c-.273 0-.448.155-.448.398 0 .407.64.447.64.755 0 .083-.071.186-.237.186a.511.511 0 0 1-.397-.218v.27a.658.658 0 0 0 .416.141c.24 0 .417-.17.417-.403 0-.474-.64-.47-.64-.757 0-.104.099-.178.237-.178.101 0 .219.04.346.16v-.243a.603.603 0 0 0-.334-.11zm2.909 0c-.482 0-.794.356-.794.77 0 .404.308.762.794.762.504 0 .8-.359.8-.762 0-.416-.31-.77-.8-.77zm-20.606.013l-.641 1.5h.218l.191-.443h.634l.192.442h.225l-.667-1.499h-.152zm-10.057.006v1.493h.198v-1.146l.993 1.146h.186v-1.493h-.199v1.153l-1.012-1.153h-.166zm2.21 0v.192h.519v1.301h.211v-1.3h.519v-.193h-1.249zm2.037 0v1.493h.217v-1.493h-.217zm1.088 0v1.493h.199v-1.146l.999 1.146h.18v-1.493h-.199v1.153l-1.012-1.153h-.167zm2.178 0v.93c0 .405.307.582.622.582.443 0 .66-.244.66-.608v-.903h-.211v.871c0 .141-.02.245-.096.32a.483.483 0 0 1-.346.122.446.446 0 0 1-.326-.128c-.068-.067-.083-.133-.083-.3v-.886h-.22zm4.068 0v1.493h.884v-.193h-.672v-1.3h-.212zm2.76 0v1.493h.211v-.647h.224c.345 0 .5-.183.5-.416 0-.236-.149-.43-.474-.43h-.461zm1.673 0v1.493h.217v-.647h.09c.109 0 .195.034.391.34l.199.308h.256c-.103-.143-.142-.193-.205-.296-.113-.186-.198-.326-.333-.415a.376.376 0 0 0 .25-.366c0-.258-.185-.416-.487-.416h-.378zm6.148 0v1.493h.218v-.647h.089c.109 0 .195.034.391.34l.198.308h.257c-.103-.143-.142-.193-.206-.296-.113-.186-.197-.326-.333-.415a.375.375 0 0 0 .25-.366c0-.258-.185-.416-.486-.416h-.378zm1.864 0v1.493h.865v-.193h-.653v-.46h.609v-.192h-.609v-.455h.634v-.192h-.846zm4.945 0v1.493h.218v-1.493h-.218zm3.299 0v1.493h.205v-1.146l.993 1.146h.185v-1.493h-.205v1.153l-1.006-1.153h-.172zm-33.833.18c.334 0 .576.242.576.57 0 .324-.242.563-.576.563-.332 0-.583-.239-.583-.563 0-.328.251-.57.583-.57zm20.042 0c.334 0 .577.242.577.57 0 .324-.243.563-.577.563-.332 0-.583-.239-.583-.563 0-.328.251-.57.583-.57zm12.184 0c.334 0 .583.242.583.57 0 .324-.249.563-.583.563a.554.554 0 0 1-.577-.563.557.557 0 0 1 .577-.57zm-14.432.007h.135c.208 0 .292.084.295.225.002.123-.065.242-.295.242h-.135v-.467zm6.149 0h.134c.208 0 .292.084.294.225.002.123-.065.242-.294.242h-.134v-.467zm-7.827.005h.25c.195 0 .256.122.256.23 0 .15-.104.23-.263.23h-.244v-.46zm-4.426.127l.243.54h-.461l.218-.54z"/><g><g fill="#383838"><path d="M255.824 373.204v-1.403h.44c.621 0 1.3.021 1.3.658 0 .672-.656.745-1.43.745h-.31m0 .768h.571l1.718 2.068h1.799l-2.098-2.242c.441-.141 1.359-.411 1.359-1.354 0-1.375-1.86-1.412-2.778-1.412h-1.93c-.203 0-.251.022-.251.155v4.856s.048-.002.251-.002h1.108l.25.002.001-2.071zM268.25 375.397c-.894 0-1.275-.717-1.275-1.856 0-1.141.381-1.865 1.275-1.865.895 0 1.276.717 1.276 1.865 0 1.14-.381 1.856-1.276 1.856m2.969-1.856c0-1.771-1.132-2.633-2.968-2.633-1.835 0-2.968.855-2.968 2.633 0 1.77 1.12 2.624 2.968 2.624 1.848 0 2.968-.855 2.968-2.624M250.581 373.818h2.254v-.79h-2.254v-1.206h2.516l.342-.79H249.201c-.166.001-.22.022-.23.115v4.893l4.41.002v-.79h-2.802v-1.434M277.279 371.032h-.871l-.25-.001s.03 3.026.03 3.259l-2.688-3.162c-.071-.081-.095-.096-.274-.096h-1.006c-.155.001-.21.022-.222.108v4.902l.25-.001h.87l.251.001v-2.788c0-.335-.011-.558-.011-.653 0 0 2.749 3.215 2.86 3.337.109.123.273.104.273.104h.787l.25.003v-5.014l-.249.001M237.51 373.818h2.254v-.79h-2.254v-1.206h2.515l.343-.79h-4.236c-.18.001-.229.026-.232.142v4.866l4.41.002v-.636l.002-.154h-2.802v-1.434M244.572 374.147l-1.915-2.981c-.071-.079-.095-.094-.274-.094h-.978l-.25.001v5.009l.25-.001h.871l.25.001v-2.787c0-.336-.01-.468-.01-.562 0 0 1.889 3.023 2.076 3.235h.01c.188-.213 1.979-3.235 1.979-3.235 0 .095-.01.227-.01.562v2.787l.25-.001h.87l.251.001v-5.009l-.251-.001h-.977c-.179 0-.202.015-.274.094l-1.817 2.981h-.051M263.953 373.343c-.992-.477-2.343-.519-2.343-1.073 0-.439.439-.57.958-.57.812 0 1.511.32 1.578.32.045 0 .09-.028.124-.073l.077-.099.404-.515-.012-.004a2.317 2.317 0 0 0-.193-.083l-.154-.057a6.573 6.573 0 0 0-1.869-.281c-1.308 0-2.48.438-2.48 1.492 0 .606.277.989.875 1.225 1.15.453 2.305.427 2.305 1.078 0 .452-.282.673-.914.673-.97 0-1.804-.321-1.871-.321a.154.154 0 0 0-.125.071l-.124.23-.216.401.176.066c.36.142 1.299.341 2.204.341 1.421 0 2.462-.465 2.435-1.543-.013-.554-.261-1.002-.835-1.278M278.448 375.468v.578h-.094v-.578h-.218v-.056h.532v.056zM279.383 376.046v-.58l-.225.58h-.086l-.228-.574v.574h-.074v-.634h.136l.22.543.21-.543h.133v.634z"/></g><defs><path id="m" d="M256.171 358.964c-.006.013-.014.038-.006.072.038.097 2.737 3.406 2.737 3.406l1.363.566c.438.188.526.139.555.105l.007-.012c.026-.05-.049-.156-.158-.292l-3.581-4.385c-.333-.4-.305-.48-.288-.521l-.629 1.061z"/></defs><clipPath id="n"><use xlink:href="#m" overflow="visible"/></clipPath><linearGradient id="o" gradientUnits="userSpaceOnUse" x1="-975.569" y1="2822.989" x2="-975.211" y2="2822.989" gradientTransform="scale(17.0525) rotate(30.29 4695.74 3251.94)"><stop offset="0" stop-color="#969696"/><stop offset=".103" stop-color="#a1a1a1"/><stop offset=".284" stop-color="#bebebe"/><stop offset=".5" stop-color="#e8e8e8"/><stop offset=".6" stop-color="#dedede"/><stop offset=".772" stop-color="#c3c3c3"/><stop offset=".993" stop-color="#989898"/><stop offset="1" stop-color="#969696"/></linearGradient><path clip-path="url(#n)" fill="url(#o)" d="M257.353 355.858l5.806 3.394-3.499 5.991-5.808-3.393z"/><defs><path id="p" d="M254.383 361.985l-.003.006c-.029.05.041.165.15.302l.261.319 2.221.923-.714-.874-1.363-.567c-.25-.107-.385-.137-.461-.137h-.001c-.053 0-.077.016-.09.028"/></defs><clipPath id="q"><use xlink:href="#p" overflow="visible"/></clipPath><linearGradient id="r" gradientUnits="userSpaceOnUse" x1="-977.631" y1="2829.809" x2="-977.273" y2="2829.809" gradientTransform="rotate(30.29 39832.383 28092.588) scale(8.5199)"><stop offset="0" stop-color="#969696"/><stop offset=".206" stop-color="#a1a1a1"/><stop offset=".568" stop-color="#bebebe"/><stop offset="1" stop-color="#e8e8e8"/></linearGradient><path clip-path="url(#q)" fill="url(#r)" d="M255.028 360.797l2.672 1.561-1.365 2.336-2.671-1.56z"/><defs><path id="s" d="M255.021 360.918a.097.097 0 0 0-.019.021l-.625 1.053.006-.007c.032-.034.125-.076.551.108l4.929 2.049c.074.028.245.082.315.042a.127.127 0 0 0 .03-.035l.614-1.038-.003.003c-.03.033-.117.083-.555-.105l-4.932-2.05a.837.837 0 0 0-.243-.054.156.156 0 0 0-.068.013"/></defs><clipPath id="t"><use xlink:href="#s" overflow="visible"/></clipPath><linearGradient id="u" gradientUnits="userSpaceOnUse" x1="-975.559" y1="2822.734" x2="-975.201" y2="2822.734" gradientTransform="rotate(30.29 80355.17 55649.045) scale(17.1144)"><stop offset="0" stop-color="#393939"/><stop offset=".202" stop-color="#393939"/><stop offset=".275" stop-color="#484848"/><stop offset=".425" stop-color="#707070"/><stop offset=".506" stop-color="#878787"/><stop offset=".56" stop-color="#777"/><stop offset=".725" stop-color="#4a4a4a"/><stop offset=".803" stop-color="#393939"/><stop offset="1" stop-color="#393939"/></linearGradient><path clip-path="url(#t)" fill="url(#u)" d="M256.018 358.098l6.252 3.65-3.086 5.284-6.252-3.652z"/><g><defs><path id="v" d="M253.489 363.494l-.003.006c-.029.05.041.165.15.301l.261.319 2.167.901.015.005.041.017-.714-.874-1.364-.566c-.25-.108-.384-.139-.46-.139-.056 0-.08.017-.093.03"/></defs><clipPath id="w"><use xlink:href="#v" overflow="visible"/></clipPath><linearGradient id="x" gradientUnits="userSpaceOnUse" x1="-977.63" y1="2829.436" x2="-977.272" y2="2829.436" gradientTransform="scale(8.5208) rotate(30.29 4674.119 3296.996)"><stop offset="0" stop-color="#969696"/><stop offset=".206" stop-color="#a1a1a1"/><stop offset=".568" stop-color="#bebebe"/><stop offset="1" stop-color="#e8e8e8"/></linearGradient><path clip-path="url(#w)" fill="url(#x)" d="M254.134 362.306l2.673 1.56-1.366 2.337-2.671-1.561z"/></g><g><defs><path id="y" d="M252.595 365.002l-.003.005c-.029.052.042.165.151.302l3.58 4.386c.319.382.323.46.295.507l.623-1.046s.022-.03.009-.082a1.041 1.041 0 0 0-.155-.231l-2.584-3.163-1.364-.569c-.249-.106-.384-.137-.46-.137-.055-.001-.079.014-.092.028"/></defs><clipPath id="z"><use xlink:href="#y" overflow="visible"/></clipPath><linearGradient id="A" gradientUnits="userSpaceOnUse" x1="-975.564" y1="2822.17" x2="-975.206" y2="2822.17" gradientTransform="rotate(30.29 80007.277 55424.546) scale(17.0469)"><stop offset="0" stop-color="#969696"/><stop offset=".103" stop-color="#a1a1a1"/><stop offset=".284" stop-color="#bebebe"/><stop offset=".5" stop-color="#e8e8e8"/><stop offset=".6" stop-color="#dedede"/><stop offset=".772" stop-color="#c3c3c3"/><stop offset=".993" stop-color="#989898"/><stop offset="1" stop-color="#969696"/></linearGradient><path clip-path="url(#z)" fill="url(#A)" d="M253.759 362.926l5.782 3.377-3.473 5.946-5.782-3.378z"/></g><g><defs><path id="B" d="M253.233 363.935l-.007.007c-.004.005-.01.009-.012.013l-.619 1.047c.031-.032.122-.076.551.108l4.929 2.049c.074.028.246.081.316.041a.124.124 0 0 0 .03-.035l.614-1.037-.002.003c-.029.032-.116.084-.556-.105l-4.581-1.905-.351-.146a.806.806 0 0 0-.242-.054.148.148 0 0 0-.07.014"/></defs><clipPath id="C"><use xlink:href="#B" overflow="visible"/></clipPath><linearGradient id="D" gradientUnits="userSpaceOnUse" x1="-975.555" y1="2822.373" x2="-975.197" y2="2822.373" gradientTransform="scale(17.1107) rotate(30.29 4694.14 3251.319)"><stop offset="0" stop-color="#393939"/><stop offset=".202" stop-color="#393939"/><stop offset=".275" stop-color="#484848"/><stop offset=".425" stop-color="#707070"/><stop offset=".506" stop-color="#878787"/><stop offset=".56" stop-color="#777"/><stop offset=".725" stop-color="#4a4a4a"/><stop offset=".803" stop-color="#393939"/><stop offset="1" stop-color="#393939"/></linearGradient><path clip-path="url(#C)" fill="url(#D)" d="M254.232 361.115l6.25 3.65-3.085 5.281-6.25-3.65z"/></g><g><defs><path id="E" d="M257.294 363.075l.714.874 1.363.568c.439.188.526.139.556.104l.007-.011c.027-.051-.048-.157-.158-.293l-.26-.319-2.222-.923z"/></defs><clipPath id="F"><use xlink:href="#E" overflow="visible"/></clipPath><linearGradient id="G" gradientUnits="userSpaceOnUse" x1="-978.277" y1="2829.891" x2="-977.918" y2="2829.891" gradientTransform="rotate(30.29 39856.01 28126.843) scale(8.5255)"><stop offset="0" stop-color="#e8e8e8"/><stop offset=".201" stop-color="#dedede"/><stop offset=".544" stop-color="#c3c3c3"/><stop offset=".985" stop-color="#989898"/><stop offset="1" stop-color="#969696"/></linearGradient><path clip-path="url(#F)" fill="url(#G)" d="M257.972 361.914l2.698 1.576-1.388 2.378-2.698-1.576z"/></g><g><defs><path id="H" d="M254.127 362.427c-.002.002-.016.016-.019.021l-.624 1.053.005-.006c.031-.034.122-.077.551.108l4.929 2.049c.075.027.246.08.316.04a.167.167 0 0 0 .031-.034l.614-1.039c0 .002-.002.003-.003.004-.029.034-.117.084-.555-.104l-1.364-.568-3.217-1.337-.351-.146a.813.813 0 0 0-.243-.054.135.135 0 0 0-.07.013"/></defs><clipPath id="I"><use xlink:href="#H" overflow="visible"/></clipPath><linearGradient id="J" gradientUnits="userSpaceOnUse" x1="-975.557" y1="2822.551" x2="-975.199" y2="2822.551" gradientTransform="scale(17.115) rotate(30.29 4694.68 3251.455)"><stop offset="0" stop-color="#393939"/><stop offset=".202" stop-color="#393939"/><stop offset=".275" stop-color="#484848"/><stop offset=".425" stop-color="#707070"/><stop offset=".506" stop-color="#878787"/><stop offset=".56" stop-color="#777"/><stop offset=".725" stop-color="#4a4a4a"/><stop offset=".803" stop-color="#393939"/><stop offset="1" stop-color="#393939"/></linearGradient><path clip-path="url(#I)" fill="url(#J)" d="M255.124 359.604l6.251 3.654-3.084 5.282-6.252-3.652z"/></g><g><defs><path id="K" d="M255.506 366.092l1.71 2.095c.32.383.323.459.296.508l.625-1.052a.107.107 0 0 0 .005-.078c-.021-.057-.415-.549-.415-.549l-2.221-.924z"/></defs><clipPath id="L"><use xlink:href="#K" overflow="visible"/></clipPath><linearGradient id="M" gradientUnits="userSpaceOnUse" x1="-978.273" y1="2829.066" x2="-977.914" y2="2829.066" gradientTransform="rotate(30.29 39835.802 28121.253) scale(8.5255)"><stop offset="0" stop-color="#e8e8e8"/><stop offset=".201" stop-color="#dedede"/><stop offset=".544" stop-color="#c3c3c3"/><stop offset=".985" stop-color="#989898"/><stop offset="1" stop-color="#969696"/></linearGradient><path clip-path="url(#L)" fill="url(#M)" d="M256.18 364.938l3.107 1.816-1.807 3.093-3.106-1.816z"/></g><g><defs><path id="N" d="M256.4 364.584l.714.874 1.364.567c.439.189.526.138.556.105l.006-.011c.027-.052-.048-.157-.158-.294l-.26-.318-2.222-.923z"/></defs><clipPath id="O"><use xlink:href="#N" overflow="visible"/></clipPath><linearGradient id="P" gradientUnits="userSpaceOnUse" x1="-978.272" y1="2829.521" x2="-977.913" y2="2829.521" gradientTransform="scale(8.5267) rotate(30.29 4673.906 3298.856)"><stop offset="0" stop-color="#e8e8e8"/><stop offset=".045" stop-color="#e8e8e8"/><stop offset=".237" stop-color="#dedede"/><stop offset=".564" stop-color="#c3c3c3"/><stop offset=".986" stop-color="#989898"/><stop offset="1" stop-color="#969696"/></linearGradient><path clip-path="url(#O)" fill="url(#P)" d="M257.079 363.423l2.697 1.575-1.388 2.378-2.698-1.576z"/></g><g><defs><path id="Q" d="M255.277 360.473a.101.101 0 0 0-.006.07.847.847 0 0 0 .153.24l.261.32 2.221.924-1.71-2.095c-.335-.4-.305-.479-.289-.52l-.63 1.061z"/></defs><clipPath id="R"><use xlink:href="#Q" overflow="visible"/></clipPath><linearGradient id="S" gradientUnits="userSpaceOnUse" x1="-977.632" y1="2830.246" x2="-977.274" y2="2830.246" gradientTransform="rotate(30.29 39873.913 28116.436) scale(8.5264)"><stop offset="0" stop-color="#969696"/><stop offset=".206" stop-color="#a1a1a1"/><stop offset=".568" stop-color="#bebebe"/><stop offset="1" stop-color="#e8e8e8"/></linearGradient><path clip-path="url(#R)" fill="url(#S)" d="M255.936 358.262l3.109 1.815-1.812 3.101-3.108-1.817z"/></g></g><path fill="#616161" d="M288.458 380.612v.916h6.513v-.916h-6.513zm7.436 0v.916h9.281s-.948-.916-2.203-.916h-7.078zm11.101 0v.916h5.615l-.333-.916h-5.282zm9.641 0l-.334.916h5.564v-.916h-5.23zm-28.178 1.781v.915h6.513v-.915h-6.513zm7.436.001v.914h10.357s-.12-.704-.332-.914h-10.025zm11.101 0v.914h6.23l-.308-.914h-5.922zm8.974 0l-.309.914h6.206v-.914h-5.897zm-25.639 1.781v.916h2.82v-.916h-2.82zm7.435 0v.916h2.821v-.916h-2.821zm5.564 0v.916h2.82s.179-.484.179-.916h-2.999zm5.538 0v.916h5l-.333-.916h-4.667zm6.487 0l-.334.916h5.025v-.916h-4.691zm-25.024 1.781v.916h2.82v-.916h-2.82zm7.435 0v.916h7.205s.602-.471.794-.916h-7.999zm11.102 0v.916h2.82v-.51l.179.51h5.167l.192-.51v.51h2.82v-.916h-5.294l-.281.775-.282-.775h-5.321zm-18.537 1.78v.916h2.82v-.916h-2.82zm7.435 0v.916h7.999c-.192-.444-.794-.916-.794-.916h-7.205zm11.102 0v.916h2.82v-.916h-2.82zm3.333 0l.341.916h3.874l.324-.916H312.2zm5.025 0v.916h2.82v-.916h-2.82zm-26.895 1.782v.914h2.82v-.914h-2.82zm7.435 0v.914h2.821v-.914h-2.821zm5.564 0v.914h3c0-.431-.179-.914-.179-.914h-2.821zm5.538 0v.914h2.82v-.914h-2.82zm3.973 0l.331.914h2.597l.333-.914h-3.261zm4.385 0v.914h2.82v-.914h-2.82zm-28.716 1.781v.917h6.513v-.917h-6.513zm7.385 0v.917h10.026c.211-.21.332-.917.332-.917h-10.358zm11.152 0v.917h4.641v-.917h-4.641zm6.435 0l.34.917h1.321l.319-.917h-1.98zm3.744 0v.917h4.692v-.917h-4.692zm-28.716 1.781v.916h6.513v-.916h-6.513zm7.385 0v.915h7.078c1.255 0 2.203-.915 2.203-.915h-9.281zm11.152 0v.916h4.641v-.916h-4.641zm7.079 0l.327.914.056.001.332-.915h-.715zm3.1 0v.916h4.692v-.916h-4.692z"/><g><path d="M244.366 399.888a2.396 2.396 0 0 0-1.047-.26c-.361 0-.845.145-.845.578 0 .81 1.719.759 1.719 2.159 0 1.235-.967 1.684-2.073 1.684-.483 0-.982-.116-1.437-.282l.26-.859c.39.181.802.347 1.235.347.484 0 .96-.246.96-.788 0-.909-1.718-.764-1.718-2.108 0-1.062.91-1.523 1.878-1.523.44 0 .895.058 1.307.224l-.239.828zM244.769 400.242h.7l.166-.766 1.041-.34-.239 1.105h.867l-.151.708h-.866l-.354 1.625a1.575 1.575 0 0 0-.043.361c0 .223.152.359.369.359.173 0 .347-.034.47-.085l-.166.751c-.167.035-.354.087-.52.087-.658 0-1.12-.261-1.12-.976 0-.289.058-.57.123-.867l.275-1.256h-.701l.149-.706zM251.096 401.787c0 1.308-.903 2.262-2.216 2.262-1.055 0-1.69-.65-1.69-1.698 0-1.242.953-2.195 2.203-2.195 1.003-.001 1.703.607 1.703 1.631zm-1.011.008c0-.483-.167-.89-.737-.89-.765 0-1.148.846-1.148 1.518 0 .492.202.873.759.873.75 0 1.126-.866 1.126-1.501zM273.009 401.787c0 1.308-.903 2.262-2.217 2.262-1.055 0-1.69-.65-1.69-1.698 0-1.242.953-2.195 2.203-2.195 1.004-.001 1.704.607 1.704 1.631zm-1.011.008c0-.483-.166-.89-.736-.89-.766 0-1.148.846-1.148 1.518 0 .492.202.873.759.873.75 0 1.125-.866 1.125-1.501zM251.883 400.74c.029-.159.058-.325.087-.498h.924l-.13.7h.014c.173-.404.65-.787 1.098-.787.123 0 .253.007.368.037l-.202.945a1.233 1.233 0 0 0-.368-.058c-.686 0-1.019.614-1.141 1.213l-.347 1.669h-.968l.665-3.221zM254.779 400.653l.08-.411h.903l-.087.498h.014c.26-.383.686-.585 1.141-.585.441 0 .896.26.946.708h.014c.246-.484.787-.708 1.307-.708.556 0 1.033.455 1.033 1.018 0 .334-.086.709-.166 1.013l-.39 1.776h-.967l.39-1.812c.051-.225.123-.571.123-.796a.439.439 0 0 0-.455-.448c-.671 0-.837.781-.96 1.286l-.382 1.771h-.968l.39-1.812c.05-.225.123-.571.123-.796a.439.439 0 0 0-.455-.448c-.657 0-.838.789-.96 1.286l-.383 1.771h-.967l.676-3.311zM265.1 399.989c-.39-.253-.874-.361-1.401-.361-1.228 0-2 .961-2 2.151 0 .817.563 1.475 1.423 1.475.23 0 .382 0 .498-.051l.282-1.336h-1.069l.166-.795h2.044l-.578 2.752c-.295.122-.859.225-1.351.225-1.48 0-2.47-.679-2.47-2.24 0-1.842 1.207-2.975 3.027-2.975.563 0 1.155.079 1.682.281l-.253.874zM266.133 402.401c0 .687.368.938 1.032.938.397 0 .78-.101 1.141-.267l-.123.765c-.375.116-.787.211-1.185.211-1.068 0-1.791-.521-1.791-1.626 0-1.155.896-2.268 2.116-2.268.917 0 1.523.47 1.523 1.416 0 .281-.036.556-.093.83h-2.62zm1.768-.664c.015-.087.022-.166.022-.254 0-.396-.21-.62-.614-.62-.6 0-.859.361-1.047.874h1.639z"/></g><g><path fill="#545454" d="M305.608 405.619h1.233v1.662c2.078 0 4.156.003 6.234-.007.351.014.737-.011 1.042.198.214.308.188.698.203 1.052-.01 3.603-.006 7.204-.004 10.807-.011.604.056 1.221-.071 1.815-.083.433-.602.443-.949.457-2.151.007-4.303-.005-6.456 0v1.868h-1.29c-3.163-.574-6.333-1.106-9.501-1.66v-14.529c3.188-.554 6.375-1.1 9.559-1.663z"/><path fill="#FFF" d="M306.841 407.902h6.851v13.078h-6.851v-1.245h1.661v-1.453h-1.661v-.83h1.661v-1.453h-1.661v-.83h1.661v-1.454h-1.661v-.83h1.661v-1.452h-1.661v-.831h1.661v-1.453h-1.661v-1.247z"/><path fill="#545454" d="M309.332 409.148h2.906v1.453h-2.906v-1.453z"/><path fill="#FFF" d="M302.199 411.093c.469-.032.94-.062 1.412-.084a428.513 428.513 0 0 1-1.675 3.401c.571 1.163 1.154 2.316 1.727 3.479-.5-.029-.998-.06-1.499-.096-.353-.865-.783-1.702-1.036-2.606-.282.842-.685 1.638-1.009 2.464-.455-.007-.91-.024-1.364-.043.533-1.044 1.048-2.098 1.599-3.136-.467-1.068-.98-2.117-1.461-3.181.456-.026.913-.053 1.37-.077.309.811.647 1.611.903 2.445.273-.883.682-1.713 1.033-2.566z"/><path fill="#545454" d="M309.332 411.432h2.906v1.452h-2.906v-1.452zM309.332 413.715h2.906v1.454h-2.906v-1.454zM309.332 415.999h2.906v1.453h-2.906v-1.453zM309.332 418.282h2.906v1.453h-2.906v-1.453z"/></g><g><linearGradient id="T" gradientUnits="userSpaceOnUse" x1="-640.626" y1="2745.04" x2="-632.086" y2="2751.02" gradientTransform="scale(1 -1) rotate(7.002 25768.68 8391.48)"><stop offset="0" stop-color="#b3b3b3"/><stop offset=".175" stop-color="#d8d8d8"/><stop offset=".376" stop-color="#fff"/><stop offset=".68" stop-color="#fff"/><stop offset="1" stop-color="#fff"/></linearGradient><path fill="url(#T)" d="M244.637 432.233s.147-1.744 1.649-3.026c1.246-1.055 2.792-1.605 4.001-2.366a15.21 15.21 0 0 0 2.06-1.562l.081.029s-.095.711-.682 1.76c-.3.542-.967 1.473-2.528 2.065l-.337.917c-.675.286-1.715.608-1.715.608l-.835-.109c-.675.175-1.694 1.684-1.694 1.684z"/><linearGradient id="U" gradientUnits="userSpaceOnUse" x1="-640.386" y1="2742.12" x2="-636.414" y2="2744.901" gradientTransform="scale(1 -1) rotate(7.002 25768.68 8391.48)"><stop offset="0" stop-color="#fff"/><stop offset=".166" stop-color="#f9f9f9"/><stop offset=".39" stop-color="#e8e8e8"/><stop offset=".646" stop-color="#ccc"/><stop offset=".924" stop-color="#a5a5a5"/><stop offset="1" stop-color="#999"/></linearGradient><path fill="url(#U)" d="M248.705 431.808l-1.605-1.876c-.073.088-3.855 2.858-2.492 4.397.271.308 1.304 1.524 1.598 1.854.286.322.63.579 1.011.762-.117-.139-.256-.454-.183-1.144.161-1.655 1.363-3.524 1.671-3.993z"/><linearGradient id="V" gradientUnits="userSpaceOnUse" x1="-640.098" y1="2741.709" x2="-639.834" y2="2741.894" gradientTransform="scale(1 -1) rotate(7.002 25768.68 8391.48)"><stop offset="0" stop-color="#f2f2f2"/><stop offset="1" stop-color="#ccc"/></linearGradient><path fill="url(#V)" d="M244.315 433.604c0 .25.087.498.293.726.271.308 1.304 1.524 1.598 1.854.271.308.652.616 1.121.806l-3.012-3.386z"/><linearGradient id="W" gradientUnits="userSpaceOnUse" x1="-637.364" y1="2739.671" x2="-634.255" y2="2746.338" gradientTransform="scale(1 -1) rotate(7.002 25768.68 8391.48)"><stop offset="0" stop-color="#fff"/><stop offset=".17" stop-color="#f9f9f9"/><stop offset=".386" stop-color="#eaeaea"/><stop offset=".628" stop-color="#cfcfcf"/><stop offset=".887" stop-color="#ababab"/><stop offset="1" stop-color="#999"/></linearGradient><path fill="url(#W)" d="M250.398 434.645c-.359.16-.71.256-1.026.241-.184-1.165.396-2.968.638-3.627l-1.634-1.862c-.22.095-.44.185-.638.264l-.696 5.526 1.869 2.118h.058c.968.015 2.045-.264 3.071-.799l-1.642-1.861z"/><linearGradient id="X" gradientUnits="userSpaceOnUse" x1="-637.4" y1="2740.053" x2="-635.037" y2="2741.707" gradientTransform="scale(1 -1) rotate(7.002 25768.68 8391.48)"><stop offset="0" stop-color="#e6e6e6"/><stop offset=".206" stop-color="#ddd"/><stop offset=".541" stop-color="#c4c4c4"/><stop offset=".963" stop-color="#9d9d9d"/><stop offset="1" stop-color="#999"/></linearGradient><path fill="url(#X)" d="M250.398 434.645c-.66.308-1.758.74-3.027.755l-.33-.206 1.869 2.119h.058c.968.014 2.045-.265 3.071-.8l-1.641-1.868z"/><linearGradient id="Y" gradientUnits="userSpaceOnUse" x1="-635.362" y1="2742.697" x2="-628.928" y2="2747.202" gradientTransform="scale(1 -1) rotate(7.002 25768.68 8391.48)"><stop offset="0" stop-color="#fff"/><stop offset=".065" stop-color="#e7e7e7"/><stop offset=".169" stop-color="#c7c7c7"/><stop offset=".282" stop-color="#adadad"/><stop offset=".406" stop-color="#999"/><stop offset=".547" stop-color="#8a8a8a"/><stop offset=".717" stop-color="#828282"/><stop offset="1" stop-color="gray"/></linearGradient><path fill="url(#Y)" d="M255.404 428.078c-.279-.315-1.349-1.547-1.642-1.884l-4.595 6.581c.007.023 1.576 1.803 1.576 1.803.667.771 1.671.954 2.441.749a3.012 3.012 0 0 0 1.282-.741c1.891-2.154 2.345-4.909.938-6.508z"/><path fill="#595959" d="M251.828 426.692c-.396.727-.96 1.605-2.397 2.243a6.954 6.954 0 0 1-.271.117c-.256.506-.726 1.627-.447 2.778.389 1.589 1.847 1.883 2.829 1.62a3.028 3.028 0 0 0 1.283-.741c1.898-2.161 2.353-4.926.938-6.516a3.289 3.289 0 0 0-1.341-.9 7.652 7.652 0 0 1-.594 1.399z"/><path fill="#595959" d="M245.429 433.92c.168-1.649 1.363-3.525 1.671-3.987a6.377 6.377 0 0 0-.381.183c-1.561.807-1.979 1.929-1.979 1.929s.198-.887.615-1.547c.066-.109.491-.997 1.796-1.825 1.261-.799 2.096-1.005 3.459-1.921 1.085-.732 1.62-1.312 1.751-1.457-1.722-.602-4.119.007-6.046 1.714-2.528 2.235-3.299 5.497-1.715 7.293.286.322.63.579 1.011.763-.116-.149-.256-.464-.182-1.145z"/><path fill="#595959" d="M249.357 434.872c-.586-.029-1.341-.498-1.598-1.759-.234-1.166.374-3.042.616-3.723-.22.096-.425.175-.623.257-.25.438-1.356 2.527-1.158 4.396.088.88.484 1.246.748 1.401.968.013 2.03-.258 3.056-.8-.381.169-.726.243-1.041.228z"/><path fill="#202020" d="M262.63 431.149c0 1.077-.63 2.309-2.301 2.309-1.744 0-2.264-1.291-2.264-2.265 0-1.218.754-2.294 2.293-2.294 1.671.007 2.272 1.239 2.272 2.25zm-3.224.044c0 .741.301 1.188.938 1.188.542 0 .923-.426.923-1.231 0-.205-.014-.396-.08-.565a.858.858 0 0 0-.843-.608c-.476-.002-.938.329-.938 1.216zM263.554 431.845c.118.185.22.346.594.462.176.06.388.096.593.096.11 0 .638-.015.638-.322 0-.03 0-.19-.235-.264-.153-.052-.938-.191-1.106-.234-.396-.103-1.158-.345-1.158-1.246 0-.19.044-.381.117-.55.278-.631.997-.872 1.759-.872.492 0 .938.095 1.283.271.322.153.476.322.63.483l-.843.703a.855.855 0 0 0-.322-.278c-.25-.118-.572-.154-.792-.154-.227 0-.483.06-.483.279 0 .204.22.256.586.322.945.161 1.891.33 1.891 1.386 0 .446-.19.762-.381.959-.535.551-1.393.551-1.627.551-.323 0-.66-.029-.99-.125-.674-.19-.989-.571-1.18-.807l1.026-.66zM267.102 429.06h1.348v4.259h-1.348v-4.259z"/><path fill="#A8A8A8" d="M269.931 432.065c-.461-.11-1.019-.234-1.019-.828 0-.521.44-.843 1.1-.843.542 0 1.122.256 1.217.931l-.521.064c-.008-.174-.015-.314-.205-.46a.879.879 0 0 0-.55-.169c-.374 0-.564.22-.564.418 0 .271.308.359.682.446l.271.066c.337.081.945.22.945.821 0 .461-.41.902-1.194.902-.323 0-.652-.066-.879-.228a1.1 1.1 0 0 1-.425-.77l.542-.089a.646.646 0 0 0 .213.557c.169.146.381.162.572.162.425 0 .667-.162.667-.469 0-.322-.249-.389-.594-.455l-.258-.056zM272.906 433.407c-.982 0-1.4-.733-1.4-1.48 0-.632.315-1.532 1.415-1.532.938 0 1.377.733 1.371 1.51-.008.856-.521 1.502-1.386 1.502zm.828-1.906c-.11-.563-.476-.726-.799-.726-.645 0-.901.499-.901 1.151 0 .593.249 1.091.865 1.091.799 0 .865-.835.865-1.121a1.388 1.388 0 0 0-.03-.395zM275.354 430.474h.535v.396h-.535v2.44h-.462v-2.434h-.477v-.403h.477l.007-.578c.007-.243.015-.807.733-.807.139 0 .256.021.352.037v.373a1.909 1.909 0 0 0-.264-.021c-.359 0-.359.285-.359.505v.491h-.007zM277.077 430.474h.52v.396h-.52v1.627c0 .337 0 .483.205.483.088 0 .22-.037.315-.065v.396c-.087.014-.286.051-.461.051-.557 0-.557-.271-.55-.646v-1.839h-.455v-.403h.455v-.893h.491v.893z"/><g><path fill="#202020" d="M277.941 432.835c0-.279.228-.491.499-.491.264 0 .491.205.491.491s-.227.49-.491.49a.497.497 0 0 1-.499-.49zm.492.403c.22 0 .396-.176.396-.411a.391.391 0 0 0-.396-.402.395.395 0 0 0-.396.402c0 .242.175.411.396.411zm-.103-.125h-.088v-.564h.212c.132 0 .198.051.198.161 0 .103-.066.147-.146.155l.161.248h-.095l-.146-.242h-.095v.242zm.103-.314c.073 0 .139-.008.139-.096 0-.073-.066-.081-.125-.081h-.117v.177h.103z"/></g></g><g><linearGradient id="Z" gradientUnits="userSpaceOnUse" x1="191.994" y1="491.498" x2="192.024" y2="491.498" gradientTransform="rotate(90 175482.719 77298.969) scale(513.7015)"><stop offset="0" stop-color="#878787"/><stop offset=".22" stop-color="#7c7c7c"/><stop offset=".22" stop-color="#7c7c7c"/><stop offset=".794" stop-color="#5f5f5f"/><stop offset="1" stop-color="#575757"/></linearGradient><path fill="url(#Z)" d="M282.89 443.883v15.641h15.978l15.64-15.639H282.89v-.002z"/><path fill="#5F5F5F" d="M303.128 457.926v1.166h.176v-.506h.198l.319.506h.198l-.341-.506c.17-.021.308-.12.308-.33 0-.229-.141-.33-.418-.33h-.44zm.176.153h.242c.119 0 .253.021.253.166 0 .181-.135.198-.286.198h-.209v-.364zm.22-.583c-.558 0-1.035.431-1.035 1.013 0 .587.476 1.023 1.035 1.023a1.01 1.01 0 0 0 1.012-1.023c0-.582-.461-1.013-1.012-1.013zm0 .165c.456 0 .814.369.814.848 0 .488-.359.848-.814.848a.828.828 0 0 1-.836-.848c0-.479.373-.848.836-.848z"/><path fill="#FFF" d="M301.834 451.367h-.685v-2.507h.685c.915 0 1.644.302 1.644 1.238 0 .965-.728 1.269-1.644 1.269m-7.376 1.792c-.363 0-.703-.066-.997-.178l.987-3.112h.021l.967 3.122a2.917 2.917 0 0 1-.977.168m7.194-6.335h-3.112v7.4l-2.719-7.4h-2.694l-2.323 6.188c-.246-1.56-1.861-2.1-3.131-2.502-.837-.27-1.728-.665-1.72-1.104.007-.359.479-.69 1.408-.642.627.031 1.18.083 2.278.613l1.081-1.883c-1.001-.512-2.389-.833-3.524-.836h-.008c-1.324 0-2.428.432-3.112 1.138a2.637 2.637 0 0 0-.745 1.816c-.017.953.334 1.631 1.068 2.173.623.454 1.416.748 2.117.968.864.268 1.57.499 1.562.996a.72.72 0 0 1-.205.484c-.215.224-.546.306-1.003.316-.881.018-1.536-.121-2.577-.734l-.961 1.908a7.179 7.179 0 0 0 3.523.938h.163c1.091-.021 1.973-.332 2.678-.899l.113-.099-.311.836h2.826l.475-1.444a5.179 5.179 0 0 0 1.661.264 5.23 5.23 0 0 0 1.623-.249l.457 1.43h4.611v-2.989h1.006c2.43 0 3.869-1.238 3.869-3.312 0-2.311-1.397-3.37-4.373-3.37"/></g><g><path fill="#777" d="M257.077 464.608L254.47 462l1.494-1.494 2.607 2.609-1.494 1.493zm12.162-12.515c-.138.484-.426.974-.899 1.449-1.472 1.471-3.109 1.163-4.195.075-.585-.584-.941-1.326-.919-2.116h-3.222l1.174 1.174.8-.8.92.92-.8.8 1.366 1.366c.362.362.604.437.981.06.114-.114.219-.235.318-.363l1.13 1.132c-.3.3-.595.686-.912 1.002-.633.635-1.432 1.239-2.505.166l-1.871-1.87-.632.632c.548.186 1.096.56 1.64 1.105l-2.867 2.867c.483.408 1.06.471 1.533.008.2-.194.415-.544.261-.957l1.428-1.427c.608 1.15.178 2.455-.712 3.346-1.252 1.253-2.955 1.438-4.26.131a2.99 2.99 0 0 1-.813-1.405l-1.333-.001-.001.003.731.73-1.494 1.493-.925-.925h-2.415l1.209 1.209.8-.8.92.921-.8.8 1.366 1.365c.362.363.604.438.98.06a3.66 3.66 0 0 0 .318-.362l1.132 1.131c-.302.301-.596.686-.912 1.003-.255.256-.539.506-.855.645l-.274.108h14.711V451.72l-.102.373zm-9.836 5.392a.908.908 0 0 0-1.313 0c-.445.443-.467.935-.112 1.425l1.424-1.425zm7.85-5.03c.566-.565.083-1.2-.332-1.614-.415-.415-1.04-.891-1.606-.326-.566.566-.091 1.192.324 1.607.415.416 1.048.899 1.613.333"/></g><path fill="#EDA945" d="M224.26 317.551c-.491 12.428-.838 25.061-.838 37.862 0 66.699 7 128.838 18.805 181.007 28.42-7.593 60.773-11.983 95.773-12.167V309.066c-36-.079-74.799 3.248-113.74 8.485zM332 519.867c-31 .176-60.843 4.376-86.641 11.642-10.715-49.915-16.85-109.369-16.85-173.186 0-12.249.104-24.336.549-36.227 35.348-5.011 70.941-8.194 102.941-8.119v205.89zM169.762 469.933c.333-37.3 30.882-46.043 51.107-47.739 2.549 35.87 7.112 69.652 13.338 100.354l-9.971 6.678s-1.393-33.509-26.571 1.079c-25.178 34.587 1.495 211.681-14.45 108.042-15.944-103.639-13.951-112.608-13.453-168.414z"/></svg>