<svg xmlns="http://www.w3.org/2000/svg" width="680" height="680" viewBox="0 0 680 680"><path fill="#093846" d="M340 177.21c-89.906 0-162.79 72.883-162.79 162.79S250.094 502.789 340 502.789 502.789 429.906 502.789 340 429.906 177.21 340 177.21zm0 269.992c-59.206 0-107.202-47.996-107.202-107.202S280.794 232.798 340 232.798 447.202 280.794 447.202 340 399.206 447.202 340 447.202z"/><path fill="#00A7B6" d="M392.511 166.163s139.535 11.627 139.535 172.674-139.535 175-139.535 175 276.163-49.418 276.163-175c0-125.581-276.163-172.674-276.163-172.674z"/><g fill="#42AD7E"><path d="M411.762 509.863c-12.056 2.686-19.251 3.974-19.251 3.974s7.601-.762 19.251-3.974zM656.721 338.938c0 77.674-115.656 123.447-190.343 144.909-19.94 14.44-40.325 22.078-54.616 26.017 62.674-13.955 256.912-65.704 256.912-171.026 0-103.695-188.286-153.873-253.916-168.215 14.474 4.032 34.143 11.573 53.242 25.464 74.727 21.026 188.721 65.739 188.721 142.851zM414.758 170.622c-13.324-3.711-22.247-4.459-22.247-4.459s8.394 1.433 22.247 4.459z"/></g><path fill="#00A7B6" d="M288.674 513.837S149.139 502.21 149.139 341.163s139.535-175 139.535-175-276.163 49.418-276.163 175c0 125.581 276.163 172.674 276.163 172.674z"/><g fill="#42AD7E"><path d="M269.423 170.137c12.056-2.686 19.251-3.974 19.251-3.974s-7.602.762-19.251 3.974zM24.464 341.062c0-77.674 115.656-123.447 190.343-144.909 19.94-14.44 40.325-22.078 54.616-26.017-62.674 13.955-256.912 65.704-256.912 171.026 0 103.695 188.286 153.873 253.916 168.215-14.474-4.032-34.143-11.573-53.242-25.464-74.727-21.026-188.721-65.739-188.721-142.851zM266.427 509.378c13.324 3.711 22.247 4.459 22.247 4.459s-8.395-1.433-22.247-4.459z"/></g><path fill="#EDA945" d="M38.441 235.812s298.256-226.745 588.953 0c.001 0-244.185-302.907-588.953 0zM38.441 444.188s298.256 226.745 588.953 0c.001 0-244.185 302.907-588.953 0z"/><g fill="#EDA945"><path d="M338 240h3v16h-3zM312.171 243.667l2.898-.777 4.14 15.455-2.897.776zM288.198 253.912l2.597-1.499 8 13.859-2.598 1.499zM267.668 269.977l2.121-2.121 11.314 11.314-2.121 2.121zM252.022 290.834l1.5-2.598 13.857 8.002-1.5 2.598zM242.276 315.018l.777-2.897 15.456 4.143-.777 2.897zM239 338h16v3h-16zM242.72 366.857l-.777-2.9 15.453-4.143.777 2.899zM252.94 390.856l-1.502-2.598 13.855-8.003 1.5 2.598zM269.104 411.408l-2.122-2.121 11.308-11.319 2.123 2.121zM289.966 427.07l-2.6-1.498 7.991-13.86 2.6 1.499zM314.211 436.807l-2.898-.775 4.134-15.455 2.898.775zM337 440h3.138l-.071-16.047-3.067-.051zM362.98 437.111l3.032-.812-4.221-15.482-2.977.745zM387.328 427.598l2.719-1.57-8.084-13.862-2.684 1.49zM408.385 412.105l2.219-2.218-11.397-11.298-2.205 2.134zM424.715 391.691l1.568-2.716-13.933-7.964-1.577 2.632zM435.203 367.747l.813-3.03-15.52-4.086-.842 2.949zM439.137 342l.002-3.185-16.049.094-.051 3.091zM436.273 316.016l-.822-3.078-15.478 4.246.752 2.999zM426.781 291.658l-1.59-2.76-13.851 8.107 1.502 2.703zM411.309 270.587l-2.25-2.254-11.282 11.415 2.151 2.223zM390.91 254.239l-2.756-1.595-7.943 13.946 2.652 1.59zM366.975 243.728l-3.075-.828-4.062 15.527 2.973.849z"/><path d="M312.171 243.667l2.898-.777 4.14 15.455-2.897.776z"/></g><circle fill="#093846" cx="339.603" cy="339.884" r="8.722"/><path fill="#EDA945" d="M348.01 338.646l-1.036-3.864 90.795-24.327 1.035 3.863z"/></svg>